<svg aria-hidden="true" style="position:absolute;width:0;height:0" xmlns="http://www.w3.org/2000/svg" overflow="hidden"><defs><symbol id="icon-dribble" viewBox="0 0 32 32"><path d="M31.674 12.808a15.915 15.915 0 00-4.36-8.092 16.18 16.18 0 00-2.368-1.954A15.958 15.958 0 0016 .03a16.08 16.08 0 00-3.222.324 16.022 16.022 0 00-5.726 2.408 16.164 16.164 0 00-4.318 4.32 15.88 15.88 0 00-2.41 5.726A16.061 16.061 0 000 16.028c0 1.086.108 2.172.324 3.224.21 1.028.524 2.04.934 3.006a16.024 16.024 0 005.794 7.038 15.87 15.87 0 005.726 2.408 15.94 15.94 0 006.444 0 15.88 15.88 0 005.724-2.408 16.04 16.04 0 005.796-7.038c.408-.966.724-1.978.932-3.006.218-1.052.326-2.138.326-3.224 0-1.082-.108-2.168-.326-3.22zm-2.014 3.086c-.198-.044-4.822-1.038-9.518-.448-.096-.234-.192-.468-.294-.706a42.17 42.17 0 00-.908-1.982c5.396-2.202 7.588-5.372 7.614-5.408a13.609 13.609 0 013.106 8.544zM25.026 5.776c-.034.052-1.98 3.014-7.138 4.946C15.552 6.43 12.986 3.02 12.78 2.75c1.032-.25 2.11-.386 3.22-.386 3.46 0 6.618 1.29 9.026 3.412zM12.728 2.762l-.004.002-.04.01c.014-.006.028-.008.044-.012zm-2.558.91c.182.242 2.708 3.67 5.074 7.872-6.562 1.744-12.256 1.676-12.616 1.668a13.679 13.679 0 017.542-9.54zM2.336 16.028c0-.144.006-.288.01-.432.242.006 6.994.16 14.03-1.944.392.764.766 1.544 1.108 2.32-.18.052-.36.106-.538.164-7.374 2.384-11.114 9.02-11.114 9.02s.004.002.004.006a13.618 13.618 0 01-3.5-9.134zM16 29.694c-3.308 0-6.34-1.174-8.704-3.132.18.146.306.24.306.24s2.62-5.714 10.724-8.536c.03-.01.06-.02.09-.028 1.922 4.996 2.716 9.18 2.918 10.376A13.611 13.611 0 0116 29.694zm7.636-2.33c-.14-.826-.868-4.836-2.66-9.76 4.412-.706 8.234.502 8.516.596a13.675 13.675 0 01-5.856 9.164z"/></symbol><symbol id="icon-facebook" viewBox="0 0 16 32"><path d="M14.879.245v5.072s-3.738-.373-4.674 1.06c-.512.783-.208 3.077-.254 4.724h4.959c-.418 1.925-.719 3.23-1.028 4.896H9.924v15.759h-6.87V16.059H.131v-4.958h2.891c.148-3.626.203-7.217 2.005-9.046C7.05-.002 8.981.246 14.879.246z"/></symbol><symbol id="icon-google-plus" viewBox="0 0 32 32"><path d="M27 8.434v4.88h-2v-4.88h-5V6.438h5v-4.88h2v4.88h5v1.996h-5zM13.17 3.492c1.776.982 2.816 2.576 2.816 4.662 0 1.752-1.082 3.132-2.478 4.204-1.362 1.044-1.62 1.484-1.62 2.372 0 .756 1.458 2.048 2.222 2.578 2.228 1.548 2.888 2.986 2.888 5.386 0 2.994-2.888 6.338-8.232 6.338C4.078 29.032 0 26.79 0 23.796c0-3.04 3.732-5.974 8.418-5.974.512 0 .98-.02 1.464-.02-.642-.614-1.148-1.376-1.148-2.302 0-.55.178-1.1.426-1.57-.254.018-.514-.024-.782-.024-3.848 0-6.428-2.782-6.428-6.114 0-3.262 3.562-6.266 7.346-6.266h8.44l-1.89 1.966H13.17zM9.312 18.598c-3.24-.034-6.142 1.94-6.142 4.312 0 2.418 2.34 4.188 5.578 4.188 4.554 0 6.142-1.646 6.142-4.064 0-.292-.036-.578-.104-.856-.356-1.37-1.616-2.048-3.376-3.248a7.192 7.192 0 00-2.098-.332zm3.64-10.406c-.378-2.804-2.538-5.056-4.712-5.118C6.066 3.01 4.608 5.156 4.984 7.96c.376 2.806 2.442 5.132 4.616 5.194 2.174.064 3.726-2.158 3.352-4.962z"/></symbol><symbol id="icon-instagram" viewBox="0 0 32 32"><path d="M27.938 31.754H4.307a3.939 3.939 0 01-3.938-3.94V4.184A3.94 3.94 0 014.307.244h23.631a3.939 3.939 0 013.938 3.94v23.63a3.94 3.94 0 01-3.938 3.94zM16.123 9.894a6.1 6.1 0 00-5.536 3.545h-.006c-.01.022-.017.046-.027.068-.058.129-.108.262-.158.395-.023.065-.049.128-.07.192a5.51 5.51 0 00-.117.418c-.017.065-.037.13-.052.197a6.11 6.11 0 00-.075.453c-.009.062-.021.122-.028.185a6.104 6.104 0 006.069 6.757 6.104 6.104 0 006.069-6.757c-.007-.063-.02-.123-.028-.185a6.11 6.11 0 00-.075-.453c-.015-.066-.034-.132-.052-.197a4.87 4.87 0 00-.117-.418c-.021-.064-.047-.127-.07-.192a6.132 6.132 0 00-.158-.395c-.01-.022-.017-.046-.027-.068h-.006a6.1 6.1 0 00-5.536-3.545zm12.209-4.529c0-.87-.705-1.574-1.575-1.574h-3.151c-.87 0-1.575.704-1.575 1.574v3.152c0 .87.705 1.575 1.575 1.575h3.151c.87 0 1.575-.705 1.575-1.575V5.365zm0 8.074h-2.905c.224.816.345 1.675.345 2.561 0 5.329-4.32 9.648-9.649 9.648S6.474 21.329 6.474 16c0-.886.121-1.745.345-2.561H3.914v13.194c0 .871.705 1.577 1.575 1.577h21.268c.87 0 1.575-.705 1.575-1.577V13.439z"/></symbol><symbol id="icon-pinterest" viewBox="0 0 26 32"><path d="M11.14 20.743c-.257 1.025-.517 2.1-.785 3.151-.265 1.036-.498 2.087-.884 3.04-.639 1.577-1.45 3.1-2.514 4.334-.708.821-.558.494-.77.449-.162-.034-.176-.193-.208-.425-.174-1.253-.055-2.702.009-4.11.074-1.605.411-2.939.725-4.272.596-2.54 1.164-5.03 1.766-7.586.039-.17.148-.45.111-.548-.273-.71-.45-1.348-.528-2.094a6.66 6.66 0 01.171-2.391c.341-1.302 1.124-2.455 2.331-2.878.768-.266 1.618-.145 2.135.162.532.319.897.821 1.067 1.534.182.757.048 1.663-.098 2.327-.329 1.5-.761 2.626-1.153 4.074-.194.718-.415 1.455-.233 2.23a2.598 2.598 0 001.042 1.569c.524.382 1.145.59 2 .56 1.511-.053 2.561-1.019 3.263-1.93 1.124-1.458 1.803-3.426 2.062-5.767.082-.756.144-1.623.086-2.479-.108-1.58-.602-2.852-1.387-3.836-.746-.939-1.804-1.685-3.092-2.106-1.276-.416-3.042-.555-4.612-.287-2.853.489-4.864 2.11-6.049 4.348-.62 1.172-1.03 2.519-1.03 4.197 0 1.294.319 2.295.834 3.077.164.247.404.452.564.735.228.401-.034.998-.146 1.433-.135.523-.15 1.246-.761 1.258-.254.005-.571-.18-.785-.299-1.606-.887-2.581-2.502-2.981-4.596-.244-1.273-.242-2.756 0-3.985a11.36 11.36 0 011.153-3.177C3.445 4.605 4.913 3.126 6.7 2.07 8.074 1.258 9.623.688 11.509.413c.625-.091 1.273-.129 1.975-.162a11.87 11.87 0 015.324.997 10.884 10.884 0 013.668 2.641c1.031 1.126 1.782 2.436 2.257 4.073.249.852.49 1.762.49 2.815 0 1.056-.223 1.985-.379 2.914-.583 3.481-2.239 6.327-4.724 7.948a8.206 8.206 0 01-2.159.996c-.821.239-1.758.418-2.761.348-.974-.066-1.771-.331-2.441-.71-.665-.375-1.223-.836-1.62-1.531z"/></symbol><symbol id="icon-tumbler" viewBox="0 0 32 32"><path d="M25.429 28.508c-1.28.604-2.441 1.032-3.48 1.276s-2.161.367-3.368.367c-1.372 0-2.18-.173-3.234-.52-1.052-.348-1.95-.847-2.694-1.487-.745-.646-1.259-1.333-1.549-2.056-.286-.727-.429-1.777-.429-3.157V12.363H6.602V8.096c1.178-.384 2.543-.936 3.381-1.655a8.228 8.228 0 002.024-2.588c.508-1.005.86-2.283 1.05-3.84h4.264v6.972h6.931v5.378h-6.931v7.727c0 1.749-.023 2.756.162 3.251.183.493.642 1.005 1.143 1.301.664.399 1.421.6 2.276.6 1.517 0 3.027-.497 4.529-1.489v4.753z"/></symbol><symbol id="icon-twitter" viewBox="0 0 32 32"><path d="M21.554 3.201c2.503-.044 3.836.868 5.109 2.027 1.081-.092 2.485-.695 3.312-1.116l.804-.439c-.473 1.276-1.113 2.276-2.097 3.035-.219.167-.436.395-.71.502v.016c1.403-.014 2.56-.647 3.659-.991v.016c-.577.917-1.359 1.849-2.192 2.516l-1.009.801c.018 1.486-.022 2.903-.299 4.151-1.615 7.255-5.893 12.181-12.663 14.292-2.432.757-6.361 1.068-9.147.377-1.381-.342-2.629-.73-3.799-1.242a14.921 14.921 0 01-1.83-.944c-.19-.114-.378-.23-.567-.345.628.018 1.364.192 2.065.078.636-.102 1.259-.075 1.846-.203 1.462-.321 2.761-.746 3.878-1.401.543-.318 1.366-.689 1.751-1.147-.726.012-1.385-.156-1.924-.346-2.091-.738-3.308-2.096-4.101-4.135.634.07 2.459.235 2.886-.126-.798-.044-1.564-.506-2.113-.849-1.682-1.052-3.054-2.817-3.044-5.534l.662.314c.423.178.853.273 1.356.378.213.044.639.169.884.078h-.032c-.325-.378-.855-.63-1.183-1.038-1.079-1.34-2.09-3.404-1.451-5.863.162-.624.42-1.174.694-1.682l.032.015c.126.263.406.457.583.677.551.683 1.231 1.297 1.924 1.839 2.361 1.846 4.486 2.981 7.9 3.82.866.214 1.867.377 2.902.378-.29-.846-.197-2.215.031-3.034.576-2.06 1.825-3.543 3.659-4.34.438-.19.924-.329 1.435-.441l.789-.094z"/></symbol><symbol id="icon-youtube" viewBox="0 0 32 32"><path d="M27.074 5.046H5.766C3.05 5.046 0 6.858 0 9.518v13.236c0 2.658 3.05 4.28 5.766 4.28h21.308c2.718 0 4.918-1.622 4.918-4.28V9.518c0-2.66-2.2-4.472-4.918-4.472zM13.928 21.132l-.064-10.08 7.016 5.084-6.952 4.996z"/></symbol></defs></svg>