<svg id="about-users" xmlns="http://www.w3.org/2000/svg" viewBox="0 0 32 24"><path d="M31.95 22.503v.002a.993.993 0 01-.995.992h-7.412c.556-.123.972-.614.972-1.205l-.001-.002h.001s0-4.504-3.301-6.142c-1.412-.7-1.505-.566-2.206-.732l.02-1.95s-.771-.588-1.011-2.431c-.482.14-.641-.564-.67-1.012-.026-.431-.279-1.783.31-1.661-.121-.902-.207-1.715-.165-2.147.148-1.512 1.61-3.093 3.861-3.207 2.649.114 3.698 1.694 3.845 3.206.043.432-.051 1.246-.172 2.146.589-.12.333 1.228.304 1.661-.025.448-.188 1.149-.669 1.009-.241 1.843-1.012 2.426-1.012 2.426l.018 1.948s.488.278 2.546 1.127c2.058.851 1.412.214 3.088 1.045 2.649 1.314 2.649 4.927 2.649 4.927zM17.023 15.84c2.262.935 1.552.235 3.395 1.15 2.912 1.443 2.912 5.415 2.912 5.415h-.001v.003a1.09 1.09 0 01-1.093 1.089H1.093A1.09 1.09 0 010 22.408v-.003h-.001s0-3.972 2.912-5.417c1.843-.913 1.133-.171 3.395-1.106 2.262-.933 2.798-1.26 2.798-1.26l.021-2.152s-.847-.646-1.11-2.67c-.53.153-.705-.621-.736-1.113-.029-.475-.307-1.96.339-1.825-.132-.992-.227-1.886-.18-2.359.162-1.664 1.769-3.4 4.244-3.528 2.911.126 4.065 1.863 4.226 3.525.047.475-.056 1.369-.189 2.359.647-.132.366 1.35.334 1.825-.028.493-.207 1.263-.736 1.11-.264 2.026-1.111 2.666-1.111 2.666l.019 2.142s.536.304 2.798 1.238z"/></svg>