<svg aria-hidden="true" style="position: absolute; width: 0; height: 0; overflow: hidden;" version="1.1" xmlns="http://www.w3.org/2000/svg" xmlns:xlink="http://www.w3.org/1999/xlink">
<defs>
<symbol id="icon-dribble" viewBox="0 0 32 32">
<title>icon-dribble</title>
<path d="M31.674 12.808c-0.208-1.026-0.524-2.040-0.932-3.008-0.4-0.95-0.898-1.862-1.476-2.718-0.572-0.846-1.228-1.642-1.952-2.366s-1.52-1.38-2.368-1.954c-0.854-0.578-1.77-1.074-2.718-1.474-0.966-0.408-1.978-0.724-3.006-0.934-1.054-0.216-2.138-0.324-3.222-0.324s-2.168 0.108-3.222 0.324c-1.028 0.21-2.040 0.526-3.008 0.934-0.948 0.4-1.862 0.896-2.718 1.474-0.846 0.574-1.644 1.23-2.366 1.954-0.724 0.724-1.38 1.52-1.952 2.366-0.578 0.856-1.076 1.768-1.476 2.718-0.41 0.968-0.724 1.982-0.934 3.008-0.216 1.052-0.324 2.138-0.324 3.22 0 1.086 0.108 2.172 0.324 3.224 0.21 1.028 0.524 2.040 0.934 3.006 0.4 0.95 0.898 1.866 1.476 2.72 0.572 0.848 1.228 1.642 1.952 2.366 0.722 0.724 1.52 1.38 2.366 1.952 0.856 0.578 1.77 1.076 2.718 1.476 0.968 0.41 1.98 0.722 3.008 0.932 1.054 0.218 2.138 0.328 3.222 0.328s2.168-0.11 3.222-0.328c1.028-0.21 2.040-0.522 3.006-0.932 0.948-0.4 1.864-0.898 2.718-1.476 0.848-0.572 1.644-1.228 2.368-1.952s1.38-1.518 1.952-2.366c0.578-0.854 1.076-1.77 1.476-2.72 0.408-0.966 0.724-1.978 0.932-3.006 0.218-1.052 0.326-2.138 0.326-3.224 0-1.082-0.108-2.168-0.326-3.22zM29.66 15.894c-0.198-0.044-4.822-1.038-9.518-0.448-0.096-0.234-0.192-0.468-0.294-0.706-0.284-0.668-0.59-1.33-0.908-1.982 5.396-2.202 7.588-5.372 7.614-5.408 1.916 2.326 3.074 5.302 3.106 8.544zM25.026 5.776c-0.034 0.052-1.98 3.014-7.138 4.946-2.336-4.292-4.902-7.702-5.108-7.972 1.032-0.25 2.11-0.386 3.22-0.386 3.46 0 6.618 1.29 9.026 3.412zM12.728 2.762c-0.002 0-0.004 0.002-0.004 0.002s-0.014 0.004-0.040 0.010c0.014-0.006 0.028-0.008 0.044-0.012zM10.17 3.672c0.182 0.242 2.708 3.67 5.074 7.872-6.562 1.744-12.256 1.676-12.616 1.668 0.888-4.232 3.73-7.74 7.542-9.54zM2.336 16.028c0-0.144 0.006-0.288 0.010-0.432 0.242 0.006 6.994 0.16 14.030-1.944 0.392 0.764 0.766 1.544 1.108 2.32-0.18 0.052-0.36 0.106-0.538 0.164-7.374 2.384-11.114 9.020-11.114 9.020s0.004 0.002 0.004 0.006c-2.176-2.422-3.5-5.622-3.5-9.134zM16 29.694c-3.308 0-6.34-1.174-8.704-3.132 0.18 0.146 0.306 0.24 0.306 0.24s2.62-5.714 10.724-8.536c0.030-0.010 0.060-0.020 0.090-0.028 1.922 4.996 2.716 9.18 2.918 10.376-1.638 0.696-3.442 1.080-5.334 1.080zM23.636 27.364c-0.14-0.826-0.868-4.836-2.66-9.76 4.412-0.706 8.234 0.502 8.516 0.596-0.608 3.806-2.788 7.092-5.856 9.164z"></path>
</symbol>
<symbol id="icon-facebook" viewBox="0 0 16 32">
<title>icon-facebook</title>
<path d="M14.879 0.245c0 1.817 0 5.072 0 5.072s-3.738-0.373-4.674 1.060c-0.512 0.783-0.208 3.077-0.254 4.724 1.632 0 3.327 0 4.959 0-0.418 1.925-0.719 3.23-1.028 4.896-1.412 0-3.958 0-3.958 0v15.759c0 0-4.673 0-6.87 0 0.001-4.858-0.001-10.526 0-15.697-1.067 0-1.856 0-2.923 0 0-1.817 0-3.14 0-4.958 1.035 0 1.855 0 2.891 0 0.148-3.626 0.203-7.217 2.005-9.046 2.023-2.057 3.954-1.809 9.852-1.809z"></path>
</symbol>
<symbol id="icon-google-plus" viewBox="0 0 32 32">
<title>icon-google-plus</title>
<path d="M27 8.434v4.88h-2v-4.88h-5v-1.996h5v-4.88h2v4.88h5v1.996h-5zM13.17 3.492c1.776 0.982 2.816 2.576 2.816 4.662 0 1.752-1.082 3.132-2.478 4.204-1.362 1.044-1.62 1.484-1.62 2.372 0 0.756 1.458 2.048 2.222 2.578 2.228 1.548 2.888 2.986 2.888 5.386 0 2.994-2.888 6.338-8.232 6.338-4.688 0-8.766-2.242-8.766-5.236 0-3.040 3.732-5.974 8.418-5.974 0.512 0 0.98-0.020 1.464-0.020-0.642-0.614-1.148-1.376-1.148-2.302 0-0.55 0.178-1.1 0.426-1.57-0.254 0.018-0.514-0.024-0.782-0.024-3.848 0-6.428-2.782-6.428-6.114 0-3.262 3.562-6.266 7.346-6.266 2.11 0 8.44 0 8.44 0l-1.89 1.966h-2.676zM9.312 18.598c-3.24-0.034-6.142 1.94-6.142 4.312 0 2.418 2.34 4.188 5.578 4.188 4.554 0 6.142-1.646 6.142-4.064 0-0.292-0.036-0.578-0.104-0.856-0.356-1.37-1.616-2.048-3.376-3.248-0.638-0.204-1.342-0.322-2.098-0.332zM12.952 8.192c-0.378-2.804-2.538-5.056-4.712-5.118-2.174-0.064-3.632 2.082-3.256 4.886 0.376 2.806 2.442 5.132 4.616 5.194 2.174 0.064 3.726-2.158 3.352-4.962z"></path>
</symbol>
<symbol id="icon-instagram" viewBox="0 0 32 32">
<title>icon-instagram</title>
<path d="M27.938 31.754h-23.631c-2.175 0-3.938-1.764-3.938-3.94v-23.63c0-2.176 1.764-3.94 3.938-3.94h23.631c2.175 0 3.938 1.764 3.938 3.94v23.63c0 2.176-1.764 3.94-3.938 3.94zM16.123 9.894c-2.457 0-4.567 1.455-5.536 3.545h-0.006c-0.010 0.022-0.017 0.046-0.027 0.068-0.058 0.129-0.108 0.262-0.158 0.395-0.023 0.065-0.049 0.128-0.070 0.192-0.046 0.138-0.082 0.277-0.117 0.418-0.017 0.065-0.037 0.13-0.052 0.197-0.032 0.149-0.054 0.3-0.075 0.453-0.009 0.062-0.021 0.122-0.028 0.185-0.022 0.214-0.036 0.432-0.036 0.654 0 3.371 2.734 6.103 6.105 6.103s6.105-2.732 6.105-6.103c0-0.222-0.014-0.439-0.036-0.654-0.007-0.063-0.020-0.123-0.028-0.185-0.021-0.153-0.043-0.304-0.075-0.453-0.015-0.066-0.034-0.132-0.052-0.197-0.034-0.142-0.071-0.281-0.117-0.418-0.021-0.064-0.047-0.127-0.070-0.192-0.049-0.133-0.1-0.266-0.158-0.395-0.010-0.022-0.017-0.046-0.027-0.068h-0.006c-0.969-2.090-3.079-3.545-5.536-3.545zM28.332 5.365c0-0.87-0.705-1.574-1.575-1.574h-3.151c-0.87 0-1.575 0.704-1.575 1.574v3.152c0 0.87 0.705 1.575 1.575 1.575h3.151c0.87 0 1.575-0.705 1.575-1.575v-3.152zM28.332 13.439h-2.905c0.224 0.816 0.345 1.675 0.345 2.561 0 5.329-4.32 9.648-9.649 9.648s-9.649-4.319-9.649-9.648c0-0.886 0.121-1.745 0.345-2.561h-2.905v13.194c0 0.871 0.705 1.577 1.575 1.577h21.268c0.87 0 1.575-0.705 1.575-1.577v-13.194z"></path>
</symbol>
<symbol id="icon-pinterest" viewBox="0 0 26 32">
<title>icon-pinterest</title>
<path d="M11.14 20.743c-0.257 1.025-0.517 2.1-0.785 3.151-0.265 1.036-0.498 2.087-0.884 3.040-0.639 1.577-1.45 3.1-2.514 4.334-0.708 0.821-0.558 0.494-0.77 0.449-0.162-0.034-0.176-0.193-0.208-0.425-0.174-1.253-0.055-2.702 0.009-4.11 0.074-1.605 0.411-2.939 0.725-4.272 0.596-2.54 1.164-5.030 1.766-7.586 0.039-0.17 0.148-0.45 0.111-0.548-0.273-0.71-0.45-1.348-0.528-2.094-0.090-0.855-0.021-1.654 0.171-2.391 0.341-1.302 1.124-2.455 2.331-2.878 0.768-0.266 1.618-0.145 2.135 0.162 0.532 0.319 0.897 0.821 1.067 1.534 0.182 0.757 0.048 1.663-0.098 2.327-0.329 1.5-0.761 2.626-1.153 4.074-0.194 0.718-0.415 1.455-0.233 2.23 0.167 0.711 0.538 1.201 1.042 1.569 0.524 0.382 1.145 0.59 2 0.56 1.511-0.053 2.561-1.019 3.263-1.93 1.124-1.458 1.803-3.426 2.062-5.767 0.082-0.756 0.144-1.623 0.086-2.479-0.108-1.58-0.602-2.852-1.387-3.836-0.746-0.939-1.804-1.685-3.092-2.106-1.276-0.416-3.042-0.555-4.612-0.287-2.853 0.489-4.864 2.11-6.049 4.348-0.62 1.172-1.030 2.519-1.030 4.197 0 1.294 0.319 2.295 0.834 3.077 0.164 0.247 0.404 0.452 0.564 0.735 0.228 0.401-0.034 0.998-0.146 1.433-0.135 0.523-0.15 1.246-0.761 1.258-0.254 0.005-0.571-0.18-0.785-0.299-1.606-0.887-2.581-2.502-2.981-4.596-0.244-1.273-0.242-2.756 0-3.985 0.234-1.19 0.67-2.287 1.153-3.177 1.002-1.85 2.47-3.329 4.257-4.385 1.374-0.812 2.923-1.382 4.809-1.657 0.625-0.091 1.273-0.129 1.975-0.162 2.053-0.096 3.919 0.369 5.324 0.997 1.483 0.663 2.667 1.546 3.668 2.641 1.031 1.126 1.782 2.436 2.257 4.073 0.249 0.852 0.49 1.762 0.49 2.815 0 1.056-0.223 1.985-0.379 2.914-0.583 3.481-2.239 6.327-4.724 7.948-0.602 0.391-1.33 0.754-2.159 0.996-0.821 0.239-1.758 0.418-2.761 0.348-0.974-0.066-1.771-0.331-2.441-0.71-0.665-0.375-1.223-0.836-1.62-1.531z"></path>
</symbol>
<symbol id="icon-tumbler" viewBox="0 0 32 32">
<title>icon-tumbler</title>
<path d="M25.429 28.508c-1.28 0.604-2.441 1.032-3.48 1.276s-2.161 0.367-3.368 0.367c-1.372 0-2.18-0.173-3.234-0.52-1.052-0.348-1.95-0.847-2.694-1.487-0.745-0.646-1.259-1.333-1.549-2.056-0.286-0.727-0.429-1.777-0.429-3.157v-10.568h-4.073v-4.267c1.178-0.384 2.543-0.936 3.381-1.655 0.843-0.719 1.515-1.579 2.024-2.588 0.508-1.005 0.86-2.283 1.050-3.84h4.264v6.972h6.931v5.378h-6.931v7.727c0 1.749-0.023 2.756 0.162 3.251 0.183 0.493 0.642 1.005 1.143 1.301 0.664 0.399 1.421 0.6 2.276 0.6 1.517 0 3.027-0.497 4.529-1.489v4.753z"></path>
</symbol>
<symbol id="icon-twitter" viewBox="0 0 32 32">
<title>icon-twitter</title>
<path d="M21.554 3.201c2.503-0.044 3.836 0.868 5.109 2.027 1.081-0.092 2.485-0.695 3.312-1.116 0.267-0.145 0.535-0.293 0.804-0.439-0.473 1.276-1.113 2.276-2.097 3.035-0.219 0.167-0.436 0.395-0.71 0.502 0 0.005 0 0.011 0 0.016 1.403-0.014 2.56-0.647 3.659-0.991 0 0.005 0 0.011 0 0.016-0.577 0.917-1.359 1.849-2.192 2.516-0.336 0.267-0.673 0.534-1.009 0.801 0.018 1.486-0.022 2.903-0.299 4.151-1.615 7.255-5.893 12.181-12.663 14.292-2.432 0.757-6.361 1.068-9.147 0.377-1.381-0.342-2.629-0.73-3.799-1.242-0.651-0.284-1.254-0.592-1.83-0.944-0.19-0.114-0.378-0.23-0.567-0.345 0.628 0.018 1.364 0.192 2.065 0.078 0.636-0.102 1.259-0.075 1.846-0.203 1.462-0.321 2.761-0.746 3.878-1.401 0.543-0.318 1.366-0.689 1.751-1.147-0.726 0.012-1.385-0.156-1.924-0.346-2.091-0.738-3.308-2.096-4.101-4.135 0.634 0.070 2.459 0.235 2.886-0.126-0.798-0.044-1.564-0.506-2.113-0.849-1.682-1.052-3.054-2.817-3.044-5.534 0.222 0.105 0.442 0.209 0.662 0.314 0.423 0.178 0.853 0.273 1.356 0.378 0.213 0.044 0.639 0.169 0.884 0.078-0.011 0-0.021 0-0.032 0-0.325-0.378-0.855-0.63-1.183-1.038-1.079-1.34-2.090-3.404-1.451-5.863 0.162-0.624 0.42-1.174 0.694-1.682 0.011 0.005 0.021 0.010 0.032 0.015 0.126 0.263 0.406 0.457 0.583 0.677 0.551 0.683 1.231 1.297 1.924 1.839 2.361 1.846 4.486 2.981 7.9 3.82 0.866 0.214 1.867 0.377 2.902 0.378-0.29-0.846-0.197-2.215 0.031-3.034 0.576-2.060 1.825-3.543 3.659-4.34 0.438-0.19 0.924-0.329 1.435-0.441 0.263-0.031 0.526-0.063 0.789-0.094z"></path>
</symbol>
<symbol id="icon-youtube" viewBox="0 0 32 32">
<title>icon-youtube</title>
<path d="M27.074 5.046h-21.308c-2.716 0-5.766 1.812-5.766 4.472v13.236c0 2.658 3.050 4.28 5.766 4.28h21.308c2.718 0 4.918-1.622 4.918-4.28v-13.236c0-2.66-2.2-4.472-4.918-4.472zM13.928 21.132l-0.064-10.080 7.016 5.084-6.952 4.996z"></path>
</symbol>
</defs>
</svg>
