<svg 
 xmlns="http://www.w3.org/2000/svg"
 xmlns:xlink="http://www.w3.org/1999/xlink"
 viewBox="0 0 22 12">
<path fill="rgb(204, 204, 204)"
 d="M3.138,0.520 L10.997,8.380 L18.958,0.418 L18.959,0.419 C19.229,0.158 19.596,-0.001 20.000,-0.001 C20.828,-0.001 21.500,0.669 21.500,1.498 C21.500,1.902 21.340,2.269 21.079,2.539 L21.080,2.540 L12.080,11.539 L12.079,11.539 C11.807,11.822 11.424,11.998 11.000,11.998 C10.999,11.998 10.998,11.998 10.997,11.998 C10.996,11.998 10.994,11.998 10.993,11.998 C10.569,11.998 10.187,11.822 9.914,11.539 L9.914,11.539 L0.913,2.540 L0.917,2.535 C0.659,2.265 0.500,1.901 0.500,1.498 C0.500,0.669 1.172,-0.001 2.000,-0.001 C2.455,-0.001 2.862,0.201 3.138,0.520 Z"/>
</svg>