<svg xmlns="http://www.w3.org/2000/svg" viewBox="0 0 28 32"><path fill="#95E1D3" d="M26.5 16.497h-3a1.5 1.5 0 01-1.5-1.499v-6a1.5 1.5 0 011.5-1.499h3A1.5 1.5 0 0128 8.998v6a1.5 1.5 0 01-1.5 1.499zm-3-15a1.5 1.5 0 013 0v4.501h-3V1.497zm-8 23h-3a1.5 1.5 0 01-1.5-1.499v-6a1.5 1.5 0 011.5-1.5h3a1.5 1.5 0 011.5 1.5v6a1.5 1.5 0 01-1.5 1.499zm-3-23a1.5 1.5 0 013 0v12.501h-3V1.497zm-8 19.001h-3A1.5 1.5 0 010 18.997v-6a1.5 1.5 0 011.5-1.499h3A1.5 1.5 0 016 12.997v6a1.5 1.5 0 01-1.5 1.501zm-3-19.001a1.5 1.5 0 013 0v8.502h-3V1.497zm3 29a1.5 1.5 0 11-3 0v-8.499h3v8.499zm11 0a1.5 1.5 0 11-3 0v-4.5h3v4.5zm11 0a1.5 1.5 0 11-3 0V17.999h3v12.498z"/></svg>